<?xml version="1.0" encoding="UTF-8"?>
<svg version="1.1" xmlns="http://www.w3.org/2000/svg" width="191" height="250">
<path d="M0 0 C63.03 0 126.06 0 191 0 C191 82.5 191 165 191 250 C127.97 250 64.94 250 0 250 C0 167.5 0 85 0 0 Z " fill="#FBFBFB" transform="translate(0,0)"/>
<path d="M0 0 C2.475 0.495 2.475 0.495 5 1 C5 1.66 5 2.32 5 3 C5.71865234 3.13100098 6.43730469 3.26200195 7.17773438 3.39697266 C16.31203638 5.34867905 23.86172918 9.37293379 31.5 14.625 C32.87345581 15.55977173 32.87345581 15.55977173 34.2746582 16.51342773 C49.92683376 27.32920216 60.53047478 39.80637078 69.375 56.5625 C69.87507568 57.50762451 70.37515137 58.45274902 70.89038086 59.42651367 C75.85807458 69.14292323 79.18855811 78.94849613 80.75 89.75 C80.87503906 90.554375 81.00007812 91.35875 81.12890625 92.1875 C81.42853897 94.12358834 81.71570142 96.06160062 82 98 C85.48033948 94.99425227 86.85207525 91.80515912 87.22705078 87.22924805 C87.21657715 86.24996338 87.20610352 85.27067871 87.1953125 84.26171875 C87.18886719 83.19501953 87.18242187 82.12832031 87.17578125 81.02929688 C87.15902344 79.92650391 87.14226562 78.82371094 87.125 77.6875 C87.11597656 76.56537109 87.10695312 75.44324219 87.09765625 74.28710938 C87.07414486 71.52452091 87.04128155 68.76237068 87 66 C87.73347656 66.73734375 88.46695313 67.4746875 89.22265625 68.234375 C90.88121478 69.8859354 92.55172797 71.52582075 94.24609375 73.140625 C98.68898419 77.41720404 102.388417 81.64956125 105.66015625 86.87890625 C106.91331513 88.86277002 108.26376197 90.69938881 109.6875 92.5625 C111.81366477 95.51475426 113.08510711 98.40998981 114.25390625 101.84375 C115.07365754 104.21287415 116.03067657 106.50075506 117 108.8125 C126.81130388 133.2843729 124.80540018 160.87929747 115 185 C114.39478516 186.55654297 114.39478516 186.55654297 113.77734375 188.14453125 C105.80156096 208.12245664 94.88609131 222.23161008 74.76953125 230.96875 C71.73082636 232.16430602 69.2881394 233 66 233 C67.19316395 229.11926377 68.65028369 225.5353722 70.46264648 221.90307617 C78.97731347 204.72564123 82.41685627 186.7644923 76.33203125 168.1875 C73.25111534 160.81498569 67.46448371 149.73224186 60 146 C60 150.29 60 154.58 60 159 C51.53107329 155.61242932 47.46978693 148.59145961 43.6875 140.5 C40.35293196 132.26806908 39.13329203 123.76810149 38 115 C37.05554264 116.66273399 36.11982589 118.33043345 35.1875 120 C34.66542969 120.928125 34.14335938 121.85625 33.60546875 122.8125 C32.40937951 125.18721732 31.4513884 127.38191179 30.5546875 129.86328125 C29.00133022 134.14787776 27.02447103 138.14133167 24.9375 142.1875 C22.77632508 146.40278246 20.66520749 150.55657069 19 155 C17.35173889 152.03312999 16.55728913 149.34373475 16 146 C8.76150317 152.41124005 5.39084067 160.67153773 2.75 169.8125 C2.36497314 171.11429199 2.36497314 171.11429199 1.97216797 172.44238281 C0.11543387 178.97682226 -0.97227961 185.18078328 -1 192 C-3.54050001 188.70401603 -5.68964093 185.27814187 -7.81640625 181.70703125 C-8.90269671 179.84856548 -8.90269671 179.84856548 -11 179 C-11.73190616 193.27780025 -11.49097548 205.09532255 -5 218 C-4.37351562 219.25876953 -4.37351562 219.25876953 -3.734375 220.54296875 C-1.00790559 225.38699607 2.68263034 228.58525422 7 232 C7.99 232.99 7.99 232.99 9 234 C3.55052152 234.21797914 -0.88753124 234.13019532 -6 232 C-6.65355469 231.77828125 -7.30710938 231.5565625 -7.98046875 231.328125 C-23.2141989 225.6121059 -34.34411906 209.48344574 -40.9375 195.1875 C-41.98922363 192.80316707 -42.99655199 190.40552604 -44 188 C-44.39832031 187.12988281 -44.79664063 186.25976562 -45.20703125 185.36328125 C-55.5908591 161.83438295 -51.86630787 135.29234675 -43 112 C-42.35951428 110.65389441 -41.70538899 109.31325877 -41 108 C-40.34 108 -39.68 108 -39 108 C-39.09023438 107.16210938 -39.18046875 106.32421875 -39.2734375 105.4609375 C-38.91398629 100.91131217 -37.14681624 98.33036803 -34.625 94.625 C-34.2125 93.98433594 -33.8 93.34367187 -33.375 92.68359375 C-32.31391303 91.07827186 -31.16330189 89.53287072 -30 88 C-29.34 88 -28.68 88 -28 88 C-28 87.01 -28 86.02 -28 85 C-26.515 85.495 -26.515 85.495 -25 86 C-24.89042969 86.73605469 -24.78085937 87.47210938 -24.66796875 88.23046875 C-23.53139879 95.55865231 -23.53139879 95.55865231 -20 102 C-15.76283953 101.70438415 -13.26061707 100.96964161 -10.40234375 97.74609375 C-9.93957031 97.16988281 -9.47679687 96.59367187 -9 96 C-8.40316406 95.26910156 -7.80632813 94.53820312 -7.19140625 93.78515625 C1.23568798 82.86114521 7.49924334 71.55271324 8.74609375 57.6953125 C9 55 9 55 10 53 C10.77992667 41.42895671 9.64288189 31.00985102 6.52148438 19.86865234 C6.04616556 18.1654266 5.60702788 16.45220886 5.171875 14.73828125 C3.85073644 9.58724635 2.24910005 4.8195001 0 0 Z " fill="#020202" transform="translate(56,7)"/>
<path d="M0 0 C0.66 0 1.32 0 2 0 C6.82781284 9.47073073 11.40976265 18.98512738 15 29 C16.31472947 27.37680325 17.62671662 25.751385 18.9375 24.125 C19.66839844 23.22007812 20.39929688 22.31515625 21.15234375 21.3828125 C23.0036252 19.15497253 23.0036252 19.15497253 24 17 C24.66 17 25.32 17 26 17 C29.3942905 27.2507573 30.0547449 40.16119675 25.19140625 50.0234375 C20.89757465 57.14697452 15.80159143 60.39946952 8 63 C0.70521422 64.04424336 -4.99847805 62.18473469 -11 58 C-17.19684064 52.24579083 -19.73748511 44.77754295 -20.11572266 36.453125 C-20.2463989 30.29965507 -20.16705751 24.15199982 -20 18 C-16.7776693 20.14822047 -15.91562433 21.7274751 -14 25 C-11.93532144 27.40879165 -11.11005341 27.96331553 -8 29 C-7.91363281 28.23558594 -7.82726562 27.47117188 -7.73828125 26.68359375 C-4.87811634 4.87811634 -4.87811634 4.87811634 0 0 Z " fill="#050505" transform="translate(91,180)"/>
<path d="M0 0 C1.19332515 4.77330058 0.39412339 6.28262588 -1.4375 10.75 C-1.91058594 11.92046875 -2.38367188 13.0909375 -2.87109375 14.296875 C-3.24363281 15.18890625 -3.61617187 16.0809375 -4 17 C-4.66 17 -5.32 17 -6 17 C-6.33 13.37 -6.66 9.74 -7 6 C-8.175625 7.2065625 -8.175625 7.2065625 -9.375 8.4375 C-12 11 -12 11 -14 12 C-12.7580393 8.56072421 -11.44259716 5.74792181 -9 3 C-8.34 3 -7.68 3 -7 3 C-6.01 4.98 -5.02 6.96 -4 9 C-2.68 6.03 -1.36 3.06 0 0 Z " fill="#9C9C9D" transform="translate(79,150)"/>
<path d="M0 0 C0.33 0 0.66 0 1 0 C1.36463732 1.74784829 1.7163078 3.49840502 2.0625 5.25 C2.25972656 6.22453125 2.45695312 7.1990625 2.66015625 8.203125 C3 11 3 11 2 15 C1.01 12.03 0.02 9.06 -1 6 C-1.99 6.495 -1.99 6.495 -3 7 C-1.125 1.125 -1.125 1.125 0 0 Z " fill="#B9B9BB" transform="translate(94,121)"/>
<path d="M0 0 C0.99 0.33 1.98 0.66 3 1 C3 2.98 3 4.96 3 7 C2.67 6.01 2.34 5.02 2 4 C0.02 5.32 -1.96 6.64 -4 8 C-3.34 6.35 -2.68 4.7 -2 3 C-1.34 3 -0.68 3 0 3 C0 2.01 0 1.02 0 0 Z " fill="#484849" transform="translate(28,92)"/>
<path d="M0 0 C0.66 0 1.32 0 2 0 C2 3 2 3 -0.375 5.625 C-3 8 -3 8 -5 9 C-3.7580393 5.56072421 -2.44259716 2.74792181 0 0 Z " fill="#BEBEC0" transform="translate(70,153)"/>
<path d="M0 0 C0.66 0.33 1.32 0.66 2 1 C1.67 1.66 1.34 2.32 1 3 C2.65 2.67 4.3 2.34 6 2 C4.75 3.5 4.75 3.5 3 5 C1.68 5 0.36 5 -1 5 C-0.67 3.35 -0.34 1.7 0 0 Z " fill="#B9B9BA" transform="translate(121,237)"/>
</svg>
